<svg
  xmlns="http://www.w3.org/2000/svg"
  viewBox="0 0 98 48">
  <path
    d="m 3.9375,3.34375 c -0.6166281,0 -1.125,0.5083719 -1.125,1.125 l 0,5.84375 c 0,0.616628 0.5083719,1.09375 1.125,1.09375 l 39.78125,0 c 0.616628,0 1.09375,-0.477122 1.09375,-1.09375 l 0,-5.84375 c 0,-0.6166281 -0.477122,-1.125 -1.09375,-1.125 l -39.78125,0 z m 50.03125,0.0625 c -0.616628,0 -1.125,0.4771219 -1.125,1.09375 l 0,39.78125 c 0,0.616628 0.508372,1.125 1.125,1.125 l 5.84375,0 c 0.616628,0 1.09375,-0.508372 1.09375,-1.125 l 0,-39.78125 c 0,-0.6166281 -0.477122,-1.09375 -1.09375,-1.09375 l -5.84375,0 z m 34.03125,0 c -0.616628,0 -1.09375,0.4771219 -1.09375,1.09375 l 0,39.78125 c 0,0.616628 0.477122,1.125 1.09375,1.125 l 5.84375,0 c 0.616628,0 1.125,-0.508372 1.125,-1.125 l 0,-39.78125 c 0,-0.6166281 -0.508372,-1.09375 -1.125,-1.09375 l -5.84375,0 z m -17,15.6875 c -0.616628,0 -1.125,0.508372 -1.125,1.125 l 0,24.0625 c 0,0.616628 0.508372,1.125 1.125,1.125 l 5.8125,0 c 0.616628,0 1.125,-0.508372 1.125,-1.125 l 0,-24.0625 c 0,-0.616628 -0.508372,-1.125 -1.125,-1.125 l -5.8125,0 z M 19.625,20.375 c -0.616628,0 -1.09375,0.477122 -1.09375,1.09375 l 0,5.84375 c 0,0.616628 0.477122,1.125 1.09375,1.125 l 24.09375,0 c 0.616628,0 1.09375,-0.508372 1.09375,-1.125 l 0,-5.84375 c 0,-0.616628 -0.477122,-1.09375 -1.09375,-1.09375 l -24.09375,0 z m -15.6875,17 c -0.6166281,0 -1.125,0.508372 -1.125,1.125 l 0,5.84375 c 0,0.616628 0.5083719,1.09375 1.125,1.09375 l 39.78125,0 c 0.616628,0 1.09375,-0.477122 1.09375,-1.09375 l 0,-5.84375 c 0,-0.616628 -0.477122,-1.125 -1.09375,-1.125 l -39.78125,0 z"
    style="stroke:none;"
    vector-effect="non-scaling-stroke"
  />
</svg>
